<svg xmlns="http://www.w3.org/2000/svg" width="1920" height="1080" viewBox="0 0 1920 1080" version="1.1"><path d="M 68.477 1.974 C 69.460 3.060, 71.217 4.250, 72.382 4.618 C 73.547 4.987, 75.892 6.348, 77.594 7.644 C 79.296 8.940, 80.994 10, 81.366 10 C 81.739 10, 86.646 12.730, 92.272 16.066 C 97.897 19.402, 103.400 22.637, 104.500 23.254 C 105.600 23.871, 108.525 25.506, 111 26.887 C 113.475 28.268, 117.525 30.793, 120 32.499 C 122.475 34.204, 125.963 36.194, 127.750 36.921 C 129.537 37.648, 131 38.638, 131 39.121 C 131 39.605, 131.523 40, 132.162 40 C 133.196 40, 142.725 45.609, 144 46.967 C 144.275 47.260, 147.537 49.075, 151.249 51 C 154.960 52.925, 157.998 54.837, 157.999 55.250 C 157.999 55.663, 158.636 56, 159.413 56 C 160.190 56, 163.223 57.579, 166.154 59.509 C 169.084 61.439, 172.386 63.300, 173.491 63.644 C 174.596 63.988, 175.725 64.605, 176 65.014 C 176.550 65.833, 194.878 76.826, 216 89.005 C 216.825 89.481, 222.103 92.599, 227.728 95.935 C 233.354 99.271, 238.416 102, 238.978 102 C 239.540 102, 240 102.348, 240 102.773 C 240 103.198, 241.688 104.428, 243.750 105.507 C 245.813 106.586, 251.495 109.838, 256.378 112.734 C 261.261 115.630, 265.428 118, 265.639 118 C 265.960 118, 269.783 120.290, 284 128.995 C 284.825 129.501, 290.225 132.659, 296 136.015 C 301.775 139.370, 309.875 144.161, 314 146.660 C 318.125 149.160, 323.300 152.213, 325.500 153.445 C 327.700 154.677, 334.847 158.906, 341.382 162.843 C 347.917 166.779, 353.437 170, 353.648 170 C 353.859 170, 360.343 173.825, 368.058 178.500 C 375.772 183.175, 382.515 187, 383.042 187 C 383.569 187, 384 187.450, 384 188 C 384 188.550, 384.469 189, 385.041 189 C 386.085 189, 413.439 205.026, 415.708 206.967 C 416.372 207.535, 417.152 208, 417.440 208 C 417.729 208, 420.906 209.800, 424.500 212 C 428.094 214.200, 431.261 216, 431.537 216 C 431.814 216, 433.943 217.226, 436.270 218.724 C 442.302 222.609, 445.029 224, 446.614 224 C 447.376 224, 448 224.389, 448 224.865 C 448 225.647, 457.112 231.362, 468.992 238.030 C 471.472 239.422, 475.525 241.861, 478 243.451 C 480.475 245.041, 484.975 247.687, 488 249.331 C 491.025 250.975, 494.573 253.148, 495.885 254.160 C 497.197 255.172, 498.618 256, 499.044 256 C 499.469 256, 511.221 262.819, 525.159 271.153 C 539.096 279.487, 552.975 287.652, 556 289.297 C 559.025 290.942, 561.950 292.625, 562.500 293.037 C 563.050 293.450, 565.188 294.735, 567.250 295.893 C 574.249 299.825, 577.485 301.729, 586.500 307.215 C 591.450 310.228, 601.125 315.984, 608 320.007 C 614.875 324.030, 623.755 329.274, 627.733 331.661 C 631.711 334.047, 635.176 336, 635.433 336 C 635.690 336, 637.835 337.300, 640.200 338.889 C 644.462 341.752, 649.717 344.870, 655.500 347.968 C 657.150 348.852, 659.625 350.284, 661 351.150 C 662.375 352.016, 671.375 357.345, 681 362.992 C 690.625 368.639, 700.178 374.326, 702.229 375.630 C 704.279 376.933, 706.269 378, 706.650 378 C 707.031 378, 708.053 378.637, 708.921 379.416 C 709.790 380.195, 712.525 381.886, 715 383.175 C 717.475 384.463, 724.339 388.439, 730.254 392.009 C 736.169 395.579, 741.810 398.950, 742.791 399.500 C 753.476 405.493, 768 414.525, 768 415.176 C 768 415.629, 768.788 416.033, 769.750 416.073 C 770.712 416.113, 772.850 416.986, 774.500 418.012 C 778.315 420.386, 791.156 427.884, 795.885 430.500 C 797.873 431.600, 799.950 432.852, 800.500 433.283 C 803.132 435.345, 830.047 451, 830.959 451 C 831.531 451, 832 451.348, 832 451.773 C 832 452.198, 833.688 453.429, 835.750 454.510 C 837.813 455.591, 844.552 459.518, 850.726 463.237 C 856.900 466.957, 862.412 470, 862.976 470 C 863.539 470, 864 470.450, 864 471 C 864 471.550, 864.454 472, 865.008 472 C 865.562 472, 871.247 475.150, 877.640 479 C 884.033 482.850, 889.435 486, 889.643 486 C 889.956 486, 894.976 489.007, 908 496.997 C 908.825 497.503, 914.225 500.644, 920 503.977 C 925.775 507.310, 931.175 510.461, 932 510.978 C 936.846 514.021, 950.205 522, 950.451 522 C 950.785 522, 968.711 532.512, 971 534.050 C 971.825 534.605, 973.288 535.322, 974.250 535.646 C 975.212 535.969, 976 536.631, 976 537.117 C 976 537.602, 976.525 538, 977.166 538 C 977.807 538, 981.520 539.967, 985.416 542.371 C 989.312 544.774, 994.750 548.004, 997.500 549.547 C 1006.012 554.323, 1012.372 558.025, 1015.500 560.025 C 1017.150 561.080, 1020.300 562.922, 1022.500 564.117 C 1028.898 567.593, 1039.470 574.364, 1039.833 575.217 C 1040.017 575.648, 1040.758 576, 1041.481 576 C 1042.204 576, 1045.758 577.800, 1049.380 580 C 1053.001 582.200, 1056.182 584, 1056.448 584 C 1056.715 584, 1059.717 585.800, 1063.121 588 C 1066.525 590.200, 1069.878 592, 1070.572 592 C 1071.266 592, 1071.983 592.346, 1072.167 592.768 C 1072.765 594.147, 1099.648 610, 1101.387 610 C 1101.837 610, 1102.047 600.852, 1101.853 589.671 L 1101.500 569.342 1097.067 563.421 C 1094.629 560.165, 1092.378 557.275, 1092.065 557 C 1091.752 556.725, 1088.797 553.142, 1085.498 549.037 C 1082.199 544.932, 1078.825 540.877, 1078 540.025 C 1077.175 539.173, 1074.700 536.232, 1072.500 533.489 C 1070.300 530.747, 1067.919 527.889, 1067.208 527.138 C 1063.758 523.493, 1057.899 512.864, 1052.573 500.585 C 1047.994 490.028, 1040.284 461.936, 1037.592 446 C 1032.057 413.229, 1032.241 378.949, 1038.074 356.500 C 1038.646 354.300, 1039.554 350.750, 1040.093 348.610 C 1041.377 343.512, 1044.774 333.406, 1046.686 329 C 1047.521 327.075, 1048.584 324.600, 1049.049 323.500 C 1063.609 289.044, 1077.776 268.341, 1092.079 260.619 C 1103.778 254.302, 1121.330 250, 1135.401 250 C 1137.475 250, 1139.016 249.549, 1138.832 248.997 C 1138.515 248.046, 1109.583 217.875, 1085.339 193.212 C 1079.201 186.968, 1066.601 173.963, 1057.339 164.312 C 1048.078 154.660, 1036.787 142.947, 1032.250 138.281 C 1027.713 133.615, 1024 129.393, 1024 128.899 C 1024 128.404, 1023.572 128, 1023.048 128 C 1022.525 128, 1020.464 126.312, 1018.468 124.250 C 1016.473 122.187, 1001.488 106.797, 985.170 90.048 C 968.851 73.300, 950.017 53.950, 943.316 47.048 C 936.615 40.147, 923.902 27.078, 915.066 18.006 C 906.230 8.934, 899 1.172, 899 0.756 C 899 0.340, 711.730 0, 482.845 0 C 68.547 0, 66.698 0.009, 68.477 1.974 M 1437.243 0.750 C 1441.255 9.095, 1446.615 19.617, 1447.048 20 C 1447.359 20.275, 1448.241 22.075, 1449.008 24 C 1449.774 25.925, 1451.661 29.657, 1453.201 32.294 C 1454.740 34.931, 1456 37.498, 1456 38 C 1456 38.502, 1457.259 41.069, 1458.798 43.706 C 1461.359 48.093, 1462.612 50.619, 1468.120 62.500 C 1469.140 64.700, 1470.361 67.175, 1470.832 68 C 1471.303 68.825, 1472.290 70.625, 1473.025 72 C 1475.388 76.423, 1536.484 198.055, 1599.855 324.500 C 1633.760 392.150, 1661.809 447.734, 1662.187 448.020 C 1662.566 448.307, 1663.318 449.706, 1663.859 451.130 C 1665.074 454.326, 1667.136 454.712, 1689.859 456.006 C 1699.012 456.526, 1713.475 457.406, 1722 457.961 C 1730.525 458.516, 1744.475 459.413, 1753 459.955 C 1761.525 460.496, 1775.925 461.415, 1785 461.996 C 1844.526 465.806, 1874.191 467.217, 1875.080 466.281 C 1875.488 465.851, 1875.182 462.350, 1874.401 458.500 C 1872.225 447.774, 1870.880 440.941, 1869.973 436 C 1869.519 433.525, 1868.208 427.225, 1867.060 422 C 1865.913 416.775, 1864.565 410.250, 1864.066 407.500 C 1863.567 404.750, 1861.972 396.875, 1860.521 390 C 1859.071 383.125, 1857.256 374.125, 1856.487 370 C 1855.719 365.875, 1853.684 355.750, 1851.965 347.500 C 1850.247 339.250, 1848.452 330.250, 1847.976 327.500 C 1847.501 324.750, 1845.719 315.975, 1844.017 308 C 1842.315 300.025, 1840.502 291.250, 1839.988 288.500 C 1839.474 285.750, 1836.301 270.225, 1832.937 254 C 1829.572 237.775, 1826.410 222.250, 1825.910 219.500 C 1823.473 206.110, 1818.084 179.113, 1817.026 175 C 1815.954 170.831, 1814.567 164.527, 1813.065 157 C 1809.423 138.749, 1805.599 119.885, 1803.334 109 C 1801.904 102.125, 1800.390 94.475, 1799.970 92 C 1799.299 88.045, 1797.900 81.221, 1793.920 62.500 C 1793.336 59.750, 1792.465 55.250, 1791.986 52.500 C 1791.507 49.750, 1790.687 45.700, 1790.164 43.500 C 1786.658 28.744, 1783.322 12.181, 1782.360 4.750 L 1781.746 0 1609.314 0 C 1514.476 0, 1437.044 0.337, 1437.243 0.750 M 1367.500 131.606 C 1358.060 132.574, 1326.031 138.768, 1310.979 142.535 C 1278.462 150.675, 1246.516 164.050, 1239.574 172.430 C 1237.720 174.669, 1234.755 178.075, 1232.984 180 C 1229.385 183.913, 1213.471 203.263, 1210.733 207.054 C 1209.762 208.399, 1206.667 212.650, 1203.856 216.500 C 1195.108 228.481, 1184.572 244.970, 1177.204 258.214 C 1169.546 271.978, 1162 287.520, 1162 289.530 C 1162 290.219, 1163.912 291.548, 1166.250 292.483 C 1187.246 300.879, 1193.176 307.131, 1200.115 328.187 C 1204.330 340.979, 1205.733 348.606, 1207.079 366.046 C 1209.496 397.352, 1206.513 428.409, 1198.247 458 C 1185.702 502.913, 1176.700 516.201, 1150.357 528.695 C 1147.136 530.222, 1144.304 531.600, 1144.064 531.755 C 1143.063 532.405, 1144.222 542.023, 1146.142 549 C 1147.278 553.125, 1150.450 562.125, 1153.192 569 C 1159.554 584.949, 1161.665 594.729, 1163.023 614.550 C 1164.083 630.023, 1163.523 644.005, 1160.364 681 C 1160.012 685.125, 1159.972 688.275, 1160.275 688 C 1160.578 687.725, 1162.255 685.700, 1164.001 683.500 C 1185.227 656.753, 1206.093 646.797, 1231.918 651.096 C 1246.482 653.520, 1269.195 663.015, 1284.209 672.957 C 1295.262 680.275, 1311.295 695.209, 1319.997 706.292 C 1324.120 711.543, 1327.658 715.675, 1327.859 715.474 C 1328.060 715.273, 1326.327 710.022, 1324.008 703.804 C 1318.838 689.945, 1310.651 674.301, 1301.278 660.372 C 1296.139 652.735, 1289.655 643.504, 1289.075 643 C 1288.759 642.725, 1285.244 638.175, 1281.265 632.890 C 1267.548 614.670, 1263.449 602.618, 1260.044 570.500 C 1256.816 540.050, 1254.765 528.743, 1250.470 517.730 C 1247.280 509.547, 1248.674 499.143, 1255.074 483.379 C 1256.193 480.623, 1256.071 479.687, 1254.035 475.379 C 1245.689 457.727, 1242.023 440.920, 1241.299 417 C 1240.851 402.188, 1241.088 397.639, 1242.841 387.385 C 1247.290 361.354, 1256.920 339.681, 1272.577 320.459 C 1275.022 317.457, 1276.756 315, 1276.430 315 C 1276.104 315, 1272.162 317.666, 1267.669 320.924 C 1257.877 328.026, 1249.758 332.248, 1246.723 331.816 C 1241.772 331.112, 1243.635 318.706, 1250.976 303.500 C 1256.204 292.671, 1262.182 284.581, 1277.582 267.497 C 1293.761 249.549, 1295.952 246.902, 1302.072 237.905 C 1306.806 230.946, 1312 221.315, 1312 219.495 C 1312 215.276, 1330.558 193.928, 1343.282 183.509 C 1347.978 179.664, 1351.613 176.182, 1351.359 175.772 C 1350.332 174.110, 1339.771 172.026, 1327.632 171.090 C 1320.555 170.544, 1314.530 169.864, 1314.244 169.577 C 1313.957 169.290, 1315.023 168.540, 1316.611 167.910 C 1323.895 165.020, 1337.587 162.476, 1353.500 161.055 C 1375.718 159.070, 1390.119 157.094, 1400.250 154.640 C 1405.612 153.341, 1410 152.580, 1410 152.950 C 1410 154.282, 1406.007 157.868, 1402.043 160.096 C 1399.820 161.346, 1398.001 162.623, 1398.001 162.934 C 1398.002 163.245, 1403.965 166.568, 1411.251 170.317 C 1439.693 184.953, 1459.912 202.734, 1476.598 227.786 C 1499.812 262.640, 1512.626 299.923, 1521.509 358.458 C 1522.924 367.785, 1524.289 375.622, 1524.541 375.874 C 1526.281 377.615, 1524.209 335.608, 1521.507 314.358 C 1517.083 279.577, 1513.915 265.421, 1506.385 246.791 C 1489.877 205.949, 1463.297 168.335, 1435.015 145.795 C 1430.882 142.501, 1426.580 139.033, 1425.457 138.089 C 1420.187 133.662, 1411.175 132.006, 1390 131.574 C 1379.825 131.366, 1369.700 131.380, 1367.500 131.606 M 1126 291.601 C 1103.995 297.481, 1086.344 329.142, 1079.548 374.926 C 1077.560 388.314, 1077.502 425.438, 1079.446 439.500 C 1084.886 478.851, 1101.742 512.102, 1120.913 521.299 C 1127.077 524.256, 1139.523 524.386, 1146.032 521.561 C 1156.683 516.938, 1164.643 507.784, 1173.694 489.749 C 1184.612 467.994, 1190 440.607, 1190 406.860 C 1190 378.440, 1187.064 359.326, 1179.480 338.374 C 1176.504 330.155, 1169.100 314.488, 1166.778 311.500 C 1157.015 298.933, 1151.866 294.657, 1143.321 292.017 C 1135.709 289.666, 1133.445 289.612, 1126 291.601 M 1330.919 292.065 C 1301.268 296.427, 1272.847 321.356, 1257.803 356.198 C 1242.459 391.732, 1242.768 436.823, 1258.587 470.839 C 1260.464 474.876, 1262 478.387, 1262 478.642 C 1262 478.896, 1264.558 483.019, 1267.684 487.802 C 1273.707 497.018, 1286.152 510.566, 1294.488 516.981 C 1315.607 533.234, 1347.662 538.501, 1372.500 529.799 C 1405.682 518.174, 1433.062 483.743, 1441.523 443 C 1443.975 431.194, 1445.080 412.232, 1444.048 399.671 C 1441.092 363.674, 1427.614 335.915, 1401.598 312.241 C 1383.311 295.599, 1357.322 288.181, 1330.919 292.065 M 1127.332 311.901 C 1124.244 312.693, 1117.012 316.676, 1114 319.242 C 1107.754 324.563, 1097.855 343.457, 1093.622 358.133 C 1088.915 374.457, 1087.666 384.837, 1087.743 407 C 1087.838 434.316, 1090.845 451.812, 1098.619 470.282 C 1102.217 478.832, 1110.244 491.049, 1115.364 495.768 C 1125.873 505.455, 1144.436 505.349, 1153.371 495.551 C 1165.481 482.271, 1173.381 464.513, 1178.084 440 C 1179.900 430.533, 1180.297 424.877, 1180.331 408 C 1180.354 396.363, 1179.833 384.041, 1179.126 379.500 C 1176.411 362.069, 1168.699 339.026, 1162.900 331.020 C 1161.305 328.819, 1160 326.625, 1160 326.146 C 1160 324.604, 1150.419 316.254, 1146.154 314.079 C 1141.563 311.736, 1132.196 310.653, 1127.332 311.901 M 1130.465 316.858 C 1122.122 321.946, 1111.009 340.837, 1106.411 357.750 C 1101.247 376.746, 1099.563 392.092, 1100.272 413.701 C 1101.067 437.938, 1104.701 455.616, 1112.291 472.162 C 1117.941 484.479, 1127.350 497.024, 1132.058 498.518 C 1135.349 499.563, 1135.131 498.810, 1130.753 493.996 C 1116.912 478.778, 1108.496 455.946, 1105.323 425 C 1103.048 402.815, 1104.993 378.809, 1110.670 359 C 1114.992 343.922, 1123.573 327.631, 1131.298 319.839 C 1136.217 314.877, 1135.853 313.573, 1130.465 316.858 M 1330.284 315.989 C 1323.488 317.432, 1310.151 323.641, 1304.527 327.979 C 1288.608 340.260, 1275.873 358.987, 1270.169 378.500 C 1266.482 391.114, 1265.584 398.179, 1265.655 414 C 1265.718 427.938, 1266.030 430.659, 1268.759 441 C 1274.274 461.904, 1283.093 477.191, 1297.508 490.836 C 1311.739 504.306, 1325.928 510.053, 1345.069 510.096 C 1360.407 510.131, 1372.524 506.510, 1384.500 498.311 C 1392.238 493.014, 1408 476.370, 1408 473.497 C 1408 473.147, 1409.263 470.979, 1410.807 468.680 C 1417.428 458.822, 1423.040 440.843, 1424.979 423.280 C 1426.583 408.747, 1424.639 390.950, 1419.887 376.670 C 1410.380 348.097, 1391.285 326.719, 1368.079 318.667 C 1360.660 316.093, 1357.810 315.650, 1347 315.392 C 1340.125 315.228, 1332.603 315.497, 1330.284 315.989 M 1315.906 325.250 C 1295.840 338.562, 1281.146 363.073, 1275.892 392 C 1274.330 400.600, 1274.307 423.838, 1275.851 432 C 1279.339 450.430, 1287.077 468.439, 1296.904 481 C 1303.936 489.988, 1320.046 503.288, 1321.789 501.544 C 1322.148 501.185, 1321.978 500.578, 1321.411 500.196 C 1303.979 488.435, 1290.181 468.497, 1283.569 445.515 C 1276.896 422.325, 1277.641 394.498, 1285.557 371.181 C 1291.212 354.523, 1305.619 335.139, 1319.250 325.846 C 1322.412 323.690, 1325 321.717, 1325 321.463 C 1325 320.062, 1321.579 321.487, 1315.906 325.250 M 1534 482.543 L 1534 496.087 1544.008 507.107 C 1569.379 535.043, 1586.833 560.566, 1603.815 594.563 C 1612.751 612.452, 1612.937 613.063, 1615.515 633 C 1620.814 673.976, 1621.412 722.715, 1617.036 757 C 1616.510 761.125, 1615.554 769, 1614.912 774.500 C 1614.106 781.401, 1612.506 787.909, 1609.748 795.500 C 1605.532 807.108, 1594.855 830.406, 1589.127 840.500 C 1587.254 843.800, 1585.215 847.400, 1584.596 848.500 C 1576.168 863.463, 1560.500 885.506, 1550.120 897 C 1547.302 900.121, 1546.049 902.419, 1546.031 904.500 C 1546.005 907.612, 1550.620 931.850, 1556.028 957 C 1559.676 973.967, 1561.340 984.672, 1560.620 986.547 C 1560.055 988.019, 1548.472 991.765, 1543.093 992.215 C 1539.741 992.495, 1539.642 992.387, 1536.893 985.500 C 1535.356 981.650, 1529.389 965.450, 1523.632 949.500 C 1508.210 906.770, 1507.255 904.437, 1504.718 903.286 C 1503.498 902.733, 1494.850 899.246, 1485.500 895.539 C 1476.150 891.831, 1467.150 888.214, 1465.500 887.502 C 1463.850 886.789, 1458.900 884.762, 1454.500 882.997 C 1440.433 877.354, 1426.699 870.486, 1405.500 858.492 C 1394.779 852.426, 1381.790 844.853, 1375.316 840.894 C 1355.086 828.522, 1346.834 823.762, 1345.402 823.637 C 1344.533 823.562, 1342.738 824.886, 1341.413 826.581 L 1339.005 829.661 1348.474 837.453 C 1357.417 844.810, 1381.746 862.281, 1385 863.680 C 1385.825 864.035, 1388.750 865.772, 1391.500 867.540 C 1396.444 870.719, 1399.858 872.676, 1413.500 880.148 C 1427.611 887.878, 1454.041 900.516, 1475 909.557 L 1496.500 918.830 1506.270 944.665 C 1511.643 958.874, 1516.978 973.200, 1518.125 976.500 C 1519.273 979.800, 1522.457 988.720, 1525.201 996.322 C 1527.945 1003.924, 1529.928 1010.406, 1529.607 1010.726 C 1528.996 1011.338, 1526.153 1009.491, 1498.500 990.520 C 1489.150 984.106, 1477.675 976.302, 1473 973.179 C 1468.325 970.055, 1464.275 967.235, 1464 966.911 C 1463.725 966.587, 1458.625 963.086, 1452.668 959.132 C 1446.710 955.177, 1439.494 950.267, 1436.632 948.221 C 1433.771 946.174, 1430.685 944.050, 1429.776 943.500 C 1428.867 942.950, 1421.008 937.584, 1412.312 931.575 C 1403.615 925.566, 1393.125 918.340, 1389 915.518 C 1347.739 887.284, 1346.921 886.746, 1346.258 887.408 C 1346.089 887.578, 1346.898 889.918, 1348.058 892.608 C 1351.975 901.699, 1360.906 929.413, 1364.465 943.522 C 1368.335 958.869, 1373.195 986.519, 1374.919 1003 C 1375.523 1008.775, 1376.473 1017.932, 1377.030 1023.350 C 1377.587 1028.767, 1378.330 1043.730, 1378.681 1056.600 L 1379.320 1080 1568.910 1080.002 L 1758.500 1080.005 1758.269 1072.252 C 1757.285 1039.148, 1752.106 994.890, 1739.985 916 C 1739.521 912.975, 1738.003 903.075, 1736.614 894 C 1732.071 864.336, 1719.475 804.815, 1709.525 766 C 1698.379 722.513, 1694.336 707.157, 1691.361 697 C 1689.992 692.325, 1687.967 685.125, 1686.861 681 C 1685.166 674.676, 1679.498 655.001, 1673.465 634.500 C 1672.656 631.750, 1669.480 620.275, 1666.407 609 C 1655.819 570.148, 1643.043 532.818, 1636.387 521.282 C 1634.418 517.870, 1633.146 516.859, 1629.727 515.986 C 1627.402 515.393, 1623.250 514.280, 1620.500 513.513 C 1615.651 512.162, 1604.613 509.613, 1590.750 506.644 C 1587.037 505.849, 1584 505.590, 1584 506.070 C 1584 506.549, 1585.312 508.867, 1586.916 511.221 C 1598.781 528.635, 1616 556.650, 1616 558.541 C 1616 559.252, 1616.404 559.983, 1616.897 560.167 C 1618.016 560.582, 1630.968 587.407, 1633.919 595.420 C 1638.588 608.097, 1643.614 638.866, 1646.511 672.500 C 1648.251 692.707, 1648.504 750.185, 1646.948 771.852 C 1643.919 814.039, 1638.774 849.570, 1631.869 876 C 1627.982 890.879, 1619 918.040, 1614.507 928.500 C 1613.798 930.150, 1611.765 934.875, 1609.989 939 C 1601.217 959.367, 1579.716 998.405, 1577.649 997.716 C 1577.109 997.536, 1575.174 989.764, 1573.350 980.444 C 1571.527 971.125, 1569.568 961.250, 1568.998 958.500 C 1568.428 955.750, 1566.598 946.300, 1564.933 937.500 C 1563.267 928.700, 1561.512 919.503, 1561.033 917.061 L 1560.162 912.623 1566.700 905.561 C 1572.440 899.362, 1576.145 894.918, 1588.011 880 C 1605.016 858.621, 1625.486 819.264, 1631.503 796.382 C 1637.256 774.505, 1637.546 692.429, 1632.055 640 C 1628.934 610.190, 1628.644 608.633, 1623.871 596 C 1620.986 588.364, 1606.222 559.936, 1600.240 550.500 C 1596.753 545, 1593.360 539.603, 1592.700 538.507 C 1590.983 535.655, 1569.657 506.794, 1567.938 504.996 C 1567.147 504.168, 1563.853 500.343, 1560.618 496.496 C 1551.913 486.144, 1535.855 469, 1534.863 469 C 1534.388 469, 1534 475.094, 1534 482.543 M 1738.395 524.590 C 1739.628 527.989, 1741.693 532.734, 1747.492 545.500 C 1749.468 549.851, 1760.671 578.139, 1764.124 587.500 C 1778.213 625.687, 1789.700 662.627, 1800.508 704.500 C 1803.063 714.400, 1806.034 725.875, 1807.110 730 C 1815.636 762.686, 1828.917 827.089, 1834.022 860.500 C 1834.526 863.800, 1835.423 868.975, 1836.014 872 C 1836.605 875.025, 1838.016 884.250, 1839.150 892.500 C 1840.283 900.750, 1841.600 910.200, 1842.075 913.500 C 1842.550 916.800, 1843.381 923.100, 1843.922 927.500 C 1844.463 931.900, 1845.603 941.125, 1846.456 948 C 1847.308 954.875, 1848.450 964.550, 1848.992 969.500 C 1849.534 974.450, 1850.421 982.550, 1850.962 987.500 C 1851.503 992.450, 1852.868 1007.750, 1853.996 1021.500 C 1855.124 1035.250, 1856.487 1051.474, 1857.024 1057.553 C 1857.561 1063.632, 1858 1071.176, 1858 1074.317 L 1858 1080.028 1889.250 1079.764 L 1920.500 1079.500 1920.813 924.500 C 1921.216 724.676, 1920.177 542.958, 1918.627 542.536 C 1916.740 542.023, 1889.706 536.161, 1886.500 535.570 C 1884.850 535.266, 1881.250 534.534, 1878.500 533.942 C 1875.750 533.350, 1871.025 532.476, 1868 531.999 C 1864.975 531.523, 1858.675 530.463, 1854 529.644 C 1829.050 525.277, 1795.186 522.214, 1762.238 521.345 L 1736.976 520.679 1738.395 524.590 M 1427 522.941 C 1418.254 524.719, 1404.549 534.155, 1394.563 545.275 C 1370.539 572.026, 1353.901 609.698, 1345.883 655.500 C 1342.871 672.699, 1342.636 703.610, 1345.411 717.480 C 1349.509 737.965, 1354.684 749.684, 1363.523 758.496 C 1367.754 762.714, 1371.026 765, 1374.523 766.182 C 1377.260 767.108, 1389.400 771.324, 1401.500 775.553 C 1413.600 779.781, 1424.959 783.588, 1426.743 784.013 C 1430.435 784.893, 1430.469 785.009, 1424.785 777.252 C 1417.242 766.957, 1412.328 754.977, 1408.889 738.500 C 1407.246 730.632, 1407.229 696.375, 1408.861 684 C 1415.716 632.035, 1439.218 582.227, 1469.024 556.500 C 1476.521 550.029, 1486.847 544.926, 1495.278 543.526 C 1497.356 543.181, 1498.813 542.507, 1498.518 542.028 C 1498.222 541.550, 1484.811 536.847, 1468.715 531.579 C 1439.104 521.886, 1435.679 521.177, 1427 522.941 M 1507 549.936 C 1498.178 551.715, 1485.155 559.908, 1476.377 569.202 C 1451.755 595.271, 1433.861 635.540, 1425.364 684 C 1422.948 697.778, 1422.923 733.510, 1425.322 744.500 C 1427.572 754.808, 1431.348 766.568, 1434.643 773.527 C 1439.376 783.523, 1454.112 796, 1461.185 796 C 1463.242 796, 1463.143 795.723, 1459.846 792.250 C 1448.080 779.856, 1441.718 762.542, 1438.893 735.228 C 1437.869 725.334, 1437.867 720.100, 1438.882 708.228 C 1440.221 692.569, 1443.018 674.678, 1445.603 665.238 C 1446.466 662.082, 1447.528 658.150, 1447.961 656.500 C 1448.926 652.824, 1454.029 638.362, 1456.849 631.308 C 1460.809 621.405, 1470.285 603.452, 1476.541 594 C 1484.401 582.125, 1491.384 574.309, 1500.858 566.780 C 1507.398 561.582, 1521.033 554, 1523.839 554 C 1524.406 554, 1526.137 553.484, 1527.685 552.854 L 1530.500 551.707 1526.500 550.431 C 1522.168 549.048, 1512.607 548.805, 1507 549.936 M 1520 580.295 C 1503.455 584.965, 1485.182 604.588, 1472.554 631.247 C 1464.788 647.642, 1459.486 664.413, 1455.403 685.500 C 1453.222 696.764, 1452.914 723.216, 1454.839 734 C 1456.443 742.989, 1460.406 755.134, 1463.358 760.108 C 1474.481 778.847, 1492.478 782.205, 1510.291 768.865 C 1527.368 756.076, 1542.083 733.978, 1551.820 706.500 C 1565.619 667.556, 1567.079 628.312, 1555.745 601.025 C 1552.290 592.707, 1546.077 585.610, 1539.161 582.082 C 1534.002 579.450, 1525.727 578.679, 1520 580.295 M 1518.897 591.877 C 1502.069 595.429, 1480.236 622.995, 1469.694 654 C 1457.334 690.352, 1456.691 725.558, 1467.954 749.236 C 1473.086 760.025, 1484.269 766.778, 1495 765.570 C 1502.778 764.695, 1509.758 760.820, 1517.393 753.138 C 1524.479 746.009, 1524.792 745.636, 1531.434 736.387 C 1547.250 714.363, 1559.055 672.635, 1557.712 643.500 C 1556.022 606.829, 1541.234 587.162, 1518.897 591.877 M 1151.951 619.181 C 1144.737 628.308, 1143.585 631.376, 1143.540 641.595 C 1143.495 651.908, 1143.753 652.430, 1151.478 657.642 L 1156.500 661.031 1157.176 656.765 C 1158.262 649.913, 1158.133 614, 1157.023 614 C 1156.486 614, 1154.204 616.331, 1151.951 619.181 M 1127.361 657.853 C 1125.195 659.423, 1122.602 661.959, 1121.599 663.490 L 1119.775 666.273 1123.128 668.887 C 1129.541 673.884, 1143.564 688.536, 1147.519 694.371 L 1151.499 700.241 1152.662 691.871 C 1154.178 680.959, 1154.272 672.377, 1152.904 669.820 C 1151.244 666.719, 1143.957 659.648, 1139.882 657.186 C 1135.059 654.272, 1132.086 654.430, 1127.361 657.853 M 1 868.500 L 1 1080 432 1080 L 863 1080 863 1077.551 C 863 1076.204, 862.370 1070.017, 861.601 1063.801 C 860.832 1057.586, 859.693 1044.400, 859.071 1034.500 C 858.449 1024.600, 857.458 1010.425, 856.871 1003 C 856.283 995.575, 855.803 970.492, 855.804 947.261 L 855.807 905.022 860.068 898.275 C 862.411 894.564, 864.817 891.022, 865.414 890.403 C 866.012 889.785, 867.850 887.608, 869.500 885.567 C 871.150 883.525, 873.330 880.875, 874.345 879.678 C 875.360 878.480, 876.812 876.307, 877.570 874.848 C 878.910 872.273, 878.842 872.155, 875.225 870.733 C 873.176 869.928, 869.700 868.952, 867.500 868.564 C 865.300 868.176, 860.350 867.005, 856.500 865.962 C 852.650 864.918, 840.050 861.784, 828.500 858.997 C 816.950 856.210, 805.813 853.495, 803.750 852.965 C 801.688 852.434, 798.313 851.587, 796.250 851.083 C 794.188 850.578, 790.700 849.699, 788.500 849.130 C 786.300 848.561, 783.375 847.891, 782 847.642 C 780.625 847.392, 773.200 845.583, 765.500 843.621 C 752.782 840.380, 733.359 835.610, 667 819.429 C 642.218 813.386, 637.965 812.309, 633.429 810.932 C 631.740 810.420, 628.927 810, 627.179 810 C 625.431 810, 624 809.550, 624 809 C 624 808.450, 623.106 808, 622.014 808 C 619.873 808, 615.552 806.995, 601.500 803.226 C 596.550 801.898, 590.475 800.407, 588 799.912 C 583.220 798.956, 577.691 797.679, 570.750 795.928 C 568.413 795.338, 565.033 794.613, 563.241 794.317 C 561.448 794.021, 559.734 793.379, 559.432 792.890 C 559.129 792.400, 557.920 792, 556.744 792 C 554.862 792, 515.655 782.620, 474.500 772.325 C 466.800 770.398, 458.475 768.368, 456 767.813 C 447.760 765.964, 444.575 765.200, 434.500 762.655 C 429 761.266, 421.350 759.403, 417.500 758.516 C 413.650 757.629, 408.250 756.295, 405.500 755.551 C 402.750 754.808, 398.025 753.663, 395 753.007 C 391.975 752.351, 388.150 751.410, 386.500 750.916 C 384.850 750.422, 376.750 748.414, 368.500 746.454 C 339.768 739.628, 316.480 733.964, 313.500 733.078 C 311.850 732.587, 308.025 731.644, 305 730.980 C 301.975 730.317, 298.466 729.375, 297.203 728.887 C 295.940 728.399, 293.352 728, 291.453 728 C 289.554 728, 288 727.550, 288 727 C 288 726.450, 286.724 726, 285.165 726 C 283.606 726, 279.668 725.163, 276.415 724.141 C 273.162 723.118, 267.800 721.741, 264.500 721.081 C 261.200 720.420, 257.150 719.494, 255.500 719.023 C 253.850 718.551, 248.450 717.227, 243.500 716.080 C 238.550 714.933, 232.925 713.560, 231 713.030 C 227.790 712.145, 217.104 709.538, 175.500 699.492 C 167.250 697.500, 154.425 694.332, 147 692.452 C 139.575 690.571, 132.600 688.822, 131.500 688.565 C 125.295 687.114, 94.922 679.776, 91.750 678.962 C 82.651 676.627, 79.986 675.976, 71.500 674.015 C 66.550 672.871, 61.150 671.541, 59.500 671.060 C 55.119 669.782, 2.374 657, 1.482 657 C 1.217 657, 1 752.175, 1 868.500 M 1078.708 663.586 C 1071.771 669.079, 1062.142 678.557, 1058.477 683.500 C 1056.846 685.700, 1055.254 687.725, 1054.940 688 C 1053.657 689.122, 1048.251 697.749, 1046.632 701.259 C 1045.344 704.050, 1044.945 707.268, 1045.082 713.759 C 1045.345 726.179, 1045.919 727.236, 1049.474 721.842 C 1057.902 709.051, 1079.406 685.497, 1096.250 670.606 C 1103.929 663.817, 1105.629 661.074, 1102.250 660.920 C 1101.287 660.877, 1096.768 660.531, 1092.208 660.152 L 1083.915 659.462 1078.708 663.586 M 1201.856 663.245 C 1193.384 666.224, 1188.239 669.726, 1179.439 678.507 C 1172.508 685.423, 1167.229 692.441, 1160.924 703.124 C 1155.777 711.842, 1147.869 734, 1149.903 734 C 1150.283 734, 1152.373 732.156, 1154.547 729.903 C 1159.650 724.613, 1167.819 719.136, 1176 715.518 C 1184.579 711.725, 1199.380 710.198, 1212.958 711.706 C 1249.246 715.738, 1285.144 742.178, 1301.607 777 C 1305.654 785.561, 1305.865 786.097, 1307.904 793 C 1312.179 807.473, 1313.270 822.760, 1310.931 835.414 C 1310.343 838.594, 1310.141 841.474, 1310.481 841.815 C 1310.822 842.155, 1317.955 835.473, 1326.334 826.967 C 1341.399 811.671, 1341.581 811.433, 1342.784 805.440 C 1346.356 787.641, 1342.211 763.705, 1331.952 742.881 C 1323.112 724.937, 1306.618 705.268, 1287.500 689.872 C 1275.034 679.833, 1265.634 674.429, 1249.271 667.891 C 1236.136 662.644, 1232.913 661.917, 1220.500 661.405 C 1209.733 660.961, 1207.817 661.150, 1201.856 663.245 M 1183.500 723.113 C 1161.117 728.215, 1143.619 745.600, 1138.626 767.697 C 1131.881 797.552, 1144.263 831.906, 1171.369 858.542 C 1176.552 863.634, 1177.297 864.214, 1186.735 870.480 C 1203.633 881.700, 1223.422 888, 1241.766 888 C 1269.163 888, 1291.754 871.875, 1300.608 846 C 1303.261 838.246, 1303.271 814.543, 1300.626 804.502 C 1290.184 764.866, 1257.008 732.275, 1218.767 724.085 C 1208.391 721.862, 1191.079 721.385, 1183.500 723.113 M 1191 733.587 C 1170.148 737.303, 1152.546 751.434, 1145.640 770 C 1137.419 792.101, 1145.750 826.962, 1164.500 848.926 C 1174.686 860.858, 1184.753 868.846, 1198 875.508 C 1210.291 881.690, 1218.755 883.838, 1234 884.648 C 1251.832 885.594, 1262.904 881.960, 1274.991 871.193 C 1289.792 858.008, 1295.934 840.118, 1293.063 818.547 C 1287.755 778.661, 1256.554 744.882, 1216.342 735.488 C 1209.292 733.841, 1195.415 732.800, 1191 733.587 M 1038.300 737.354 C 1037.860 738.099, 1036.054 740.462, 1034.287 742.604 C 1024.227 754.802, 988.502 802.411, 975.836 820.500 C 949.540 858.053, 921.861 904.359, 917.627 917.883 C 915.630 924.261, 913.994 954.526, 913.997 985.023 C 914 1014.428, 915.630 1037.576, 920.034 1070.750 L 921.262 1080 1075.631 1080 C 1160.534 1080, 1230 1079.859, 1230 1079.686 C 1230 1078.338, 1226.683 1054.600, 1225.432 1047 C 1220.467 1016.826, 1210.342 978.020, 1201.819 956.500 C 1195.164 939.695, 1191.412 931.182, 1181.328 910 C 1174.186 894.996, 1165.881 880.314, 1157.082 867.134 C 1155.112 864.182, 1153.050 861.050, 1152.500 860.173 C 1146.844 851.153, 1127.270 825.598, 1116.500 813.172 C 1096.195 789.746, 1042.974 736, 1040.081 736 C 1039.541 736, 1038.740 736.609, 1038.300 737.354 M 1195 757.649 C 1180.597 759.818, 1169.235 767.460, 1162.977 779.187 C 1159.692 785.342, 1159.608 785.800, 1159.598 797.500 C 1159.586 810.542, 1160.483 814.909, 1165.243 825 C 1171.742 838.777, 1184.027 851.336, 1197.322 857.795 C 1208.306 863.131, 1210.156 863.731, 1219.794 865.081 C 1233.517 867.003, 1245.043 863.610, 1254.546 854.851 C 1273.175 837.679, 1270.348 804.215, 1248.261 780.454 C 1244.396 776.296, 1234.667 768, 1233.655 768 C 1233.343 768, 1230.931 766.738, 1228.294 765.197 C 1223.057 762.134, 1215.497 759.567, 1207.114 758.004 C 1201.730 757.001, 1199.700 756.941, 1195 757.649 M 1193.600 768.838 C 1192.921 769.937, 1194.526 789.489, 1197.031 810.630 C 1198.130 819.908, 1199.477 831.775, 1200.024 837 C 1200.571 842.225, 1201.235 847.462, 1201.500 848.638 C 1202.001 850.860, 1208.208 854, 1212.100 854 C 1213.810 854, 1214.068 853.534, 1213.622 851.250 C 1213.326 849.737, 1212.817 845.350, 1212.491 841.500 C 1211.825 833.654, 1210.373 819.520, 1208.996 807.500 C 1208.492 803.100, 1207.298 792.413, 1206.342 783.750 L 1204.605 768 1199.361 768 C 1196.478 768, 1193.885 768.377, 1193.600 768.838 M 1210 770.250 C 1210.001 771.308, 1212.177 791.760, 1215.985 826.500 C 1218.112 845.904, 1219.263 853.584, 1220.219 854.750 C 1221.400 856.189, 1227.818 856.401, 1229.919 855.071 C 1231.132 854.303, 1230.946 850.506, 1228.629 828.837 C 1227.138 814.901, 1225.509 800.575, 1225.008 797 C 1224.507 793.425, 1223.816 787.482, 1223.473 783.793 C 1222.507 773.396, 1221.852 771.808, 1217.947 770.398 C 1213.412 768.759, 1210 768.696, 1210 770.250 M 1183.500 772.728 C 1178.617 775.297, 1176.962 777.818, 1177.485 781.891 C 1177.984 785.775, 1180.166 804.841, 1182.418 825 L 1183.814 837.500 1189.157 842.315 C 1194.165 846.828, 1194.522 846.987, 1194.848 844.850 C 1195.221 842.401, 1194.445 833.992, 1190.383 796.500 C 1188.953 783.300, 1187.494 772.196, 1187.142 771.825 C 1186.789 771.454, 1185.150 771.860, 1183.500 772.728 M 1228.002 777.250 C 1228.003 777.938, 1228.684 784.800, 1229.516 792.500 C 1230.347 800.200, 1231.502 811, 1232.082 816.500 C 1234.347 837.989, 1236.545 852.361, 1237.620 852.713 C 1238.236 852.915, 1240.711 851.561, 1243.120 849.704 C 1247.220 846.544, 1247.486 846.046, 1247.285 841.914 C 1246.967 835.385, 1245.259 817.451, 1243.388 801 L 1241.740 786.500 1236.279 781.250 C 1230.965 776.141, 1227.998 774.707, 1228.002 777.250 M 1169.424 792.250 C 1168.221 799.055, 1168.908 808.491, 1171.131 815.689 C 1172.994 821.720, 1175.825 827.508, 1176.555 826.778 C 1176.711 826.622, 1176.432 819.995, 1175.935 812.051 C 1175.087 798.513, 1172.934 788, 1171.008 788 C 1170.550 788, 1169.838 789.913, 1169.424 792.250 M 1248.431 800.250 C 1248.718 802.038, 1249.203 807.550, 1249.509 812.500 C 1250.098 822.031, 1251.755 832.503, 1253.070 835 C 1254.524 837.763, 1256.193 830.964, 1256.261 821.998 C 1256.304 816.376, 1255.718 811.633, 1254.532 807.998 C 1251.398 798.390, 1247.296 793.181, 1248.431 800.250" stroke="none" fill="#fb5c05" fill-rule="evenodd"/><path d="M 0 328.303 L 0 656.606 16.250 660.468 C 25.188 662.593, 38.350 665.810, 45.500 667.618 C 61.177 671.583, 60.335 671.377, 71.500 673.989 C 80.006 675.979, 82.802 676.666, 91.750 678.962 C 94.922 679.776, 125.295 687.114, 131.500 688.565 C 132.600 688.822, 139.575 690.571, 147 692.452 C 154.425 694.332, 167.250 697.500, 175.500 699.492 C 217.104 709.538, 227.790 712.145, 231 713.030 C 232.925 713.560, 238.550 714.933, 243.500 716.080 C 248.450 717.227, 253.850 718.551, 255.500 719.023 C 257.150 719.494, 261.200 720.420, 264.500 721.081 C 267.800 721.741, 273.162 723.118, 276.415 724.141 C 279.668 725.163, 283.606 726, 285.165 726 C 286.724 726, 288 726.450, 288 727 C 288 727.550, 289.554 728, 291.453 728 C 293.352 728, 295.940 728.399, 297.203 728.887 C 298.466 729.375, 301.975 730.317, 305 730.980 C 308.025 731.644, 311.850 732.587, 313.500 733.078 C 316.480 733.964, 339.768 739.628, 368.500 746.454 C 376.750 748.414, 384.850 750.422, 386.500 750.916 C 388.150 751.410, 391.975 752.351, 395 753.007 C 398.025 753.663, 402.750 754.808, 405.500 755.551 C 408.250 756.295, 413.650 757.629, 417.500 758.516 C 421.350 759.403, 429 761.265, 434.500 762.653 C 440 764.041, 446.525 765.631, 449 766.187 C 457.393 768.070, 460.480 768.813, 474.500 772.323 C 515.239 782.521, 554.859 792, 556.744 792 C 557.920 792, 559.129 792.400, 559.432 792.890 C 559.734 793.379, 561.448 794.021, 563.241 794.317 C 565.033 794.613, 568.525 795.359, 571 795.973 C 579.492 798.083, 583.507 799.013, 588 799.912 C 590.475 800.407, 596.550 801.898, 601.500 803.226 C 615.552 806.995, 619.873 808, 622.014 808 C 623.106 808, 624 808.450, 624 809 C 624 809.550, 625.431 810, 627.179 810 C 628.927 810, 631.740 810.420, 633.429 810.932 C 637.965 812.309, 642.218 813.386, 667 819.429 C 733.359 835.610, 752.782 840.380, 765.500 843.621 C 773.200 845.583, 780.625 847.392, 782 847.642 C 783.375 847.891, 786.188 848.524, 788.250 849.047 C 790.313 849.571, 793.800 850.450, 796 851 C 798.200 851.550, 801.688 852.434, 803.750 852.965 C 805.813 853.495, 816.950 856.210, 828.500 858.997 C 840.050 861.784, 852.650 864.918, 856.500 865.962 C 860.350 867.005, 865.300 868.176, 867.500 868.564 C 869.700 868.952, 873.176 869.928, 875.225 870.733 C 878.842 872.155, 878.910 872.273, 877.570 874.848 C 876.812 876.307, 875.360 878.480, 874.345 879.678 C 873.330 880.875, 871.150 883.525, 869.500 885.567 C 867.850 887.608, 866.012 889.785, 865.414 890.403 C 864.817 891.022, 862.413 894.563, 860.070 898.271 L 855.812 905.014 855.798 946.818 C 855.790 969.811, 856.270 995.120, 856.865 1003.061 C 857.459 1011.003, 858.417 1024.700, 858.993 1033.500 C 859.569 1042.300, 860.796 1056.362, 861.718 1064.750 L 863.395 1080 892.198 1080 C 918.969 1080, 920.999 1079.877, 920.980 1078.250 C 920.969 1077.287, 920.496 1073.350, 919.928 1069.500 C 916.040 1043.130, 914 1014.075, 913.997 985.023 C 913.994 954.526, 915.630 924.261, 917.627 917.883 C 921.861 904.359, 949.540 858.053, 975.836 820.500 C 988.502 802.411, 1024.227 754.802, 1034.287 742.604 C 1036.054 740.462, 1037.860 738.099, 1038.300 737.354 C 1038.740 736.609, 1039.541 736, 1040.081 736 C 1042.974 736, 1096.195 789.746, 1116.500 813.172 C 1127.270 825.598, 1146.844 851.153, 1152.500 860.173 C 1153.050 861.050, 1155.112 864.182, 1157.082 867.134 C 1165.881 880.314, 1174.186 894.996, 1181.328 910 C 1191.412 931.182, 1195.164 939.695, 1201.819 956.500 C 1210.342 978.020, 1220.467 1016.826, 1225.432 1047 C 1226.683 1054.600, 1230 1078.338, 1230 1079.686 C 1230 1079.859, 1263.597 1080, 1304.660 1080 L 1379.320 1080 1378.681 1056.600 C 1378.330 1043.730, 1377.587 1028.767, 1377.030 1023.350 C 1376.473 1017.932, 1375.523 1008.775, 1374.919 1003 C 1373.195 986.519, 1368.335 958.869, 1364.465 943.522 C 1360.906 929.413, 1351.975 901.699, 1348.058 892.608 C 1346.898 889.918, 1346.089 887.578, 1346.258 887.408 C 1346.921 886.746, 1347.739 887.284, 1389 915.518 C 1393.125 918.340, 1403.615 925.566, 1412.312 931.575 C 1421.008 937.584, 1428.867 942.950, 1429.776 943.500 C 1430.685 944.050, 1433.771 946.174, 1436.632 948.221 C 1439.494 950.267, 1446.710 955.177, 1452.668 959.132 C 1458.625 963.086, 1463.725 966.587, 1464 966.911 C 1464.275 967.235, 1468.325 970.055, 1473 973.179 C 1477.675 976.302, 1489.150 984.106, 1498.500 990.520 C 1526.153 1009.491, 1528.996 1011.338, 1529.607 1010.726 C 1529.928 1010.406, 1527.945 1003.924, 1525.201 996.322 C 1522.457 988.720, 1519.273 979.800, 1518.125 976.500 C 1516.978 973.200, 1511.643 958.874, 1506.270 944.665 L 1496.500 918.830 1475 909.557 C 1442.852 895.690, 1408.033 878.169, 1391.500 867.540 C 1388.750 865.772, 1385.825 864.035, 1385 863.680 C 1381.746 862.281, 1357.417 844.810, 1348.474 837.453 L 1339.005 829.661 1341.413 826.581 C 1342.738 824.886, 1344.533 823.562, 1345.402 823.637 C 1346.834 823.762, 1355.086 828.522, 1375.316 840.894 C 1381.790 844.853, 1394.779 852.426, 1405.500 858.492 C 1426.699 870.486, 1440.433 877.354, 1454.500 882.997 C 1458.900 884.762, 1463.850 886.789, 1465.500 887.502 C 1467.150 888.214, 1476.150 891.831, 1485.500 895.539 C 1494.850 899.246, 1503.498 902.733, 1504.718 903.286 C 1507.255 904.437, 1508.210 906.770, 1523.632 949.500 C 1529.389 965.450, 1535.356 981.650, 1536.893 985.500 C 1539.642 992.387, 1539.741 992.495, 1543.093 992.215 C 1548.472 991.765, 1560.055 988.019, 1560.620 986.547 C 1561.340 984.672, 1559.676 973.967, 1556.028 957 C 1550.620 931.850, 1546.005 907.612, 1546.031 904.500 C 1546.049 902.419, 1547.302 900.121, 1550.120 897 C 1560.500 885.506, 1576.168 863.463, 1584.596 848.500 C 1585.215 847.400, 1587.254 843.800, 1589.127 840.500 C 1594.855 830.406, 1605.532 807.108, 1609.748 795.500 C 1612.506 787.909, 1614.106 781.401, 1614.912 774.500 C 1615.554 769, 1616.510 761.125, 1617.036 757 C 1621.412 722.715, 1620.814 673.976, 1615.515 633 C 1612.937 613.063, 1612.751 612.452, 1603.815 594.563 C 1586.833 560.566, 1569.379 535.043, 1544.008 507.107 L 1534 496.087 1534 482.543 C 1534 475.094, 1534.388 469, 1534.863 469 C 1535.855 469, 1551.913 486.144, 1560.618 496.496 C 1563.853 500.343, 1567.147 504.168, 1567.938 504.996 C 1569.657 506.794, 1590.983 535.655, 1592.700 538.507 C 1593.360 539.603, 1596.753 545, 1600.240 550.500 C 1606.222 559.936, 1620.986 588.364, 1623.871 596 C 1628.644 608.633, 1628.934 610.190, 1632.055 640 C 1637.546 692.429, 1637.256 774.505, 1631.503 796.382 C 1625.486 819.264, 1605.016 858.621, 1588.011 880 C 1576.145 894.918, 1572.440 899.362, 1566.700 905.561 L 1560.162 912.623 1561.033 917.061 C 1561.512 919.503, 1563.267 928.700, 1564.933 937.500 C 1566.598 946.300, 1568.428 955.750, 1568.998 958.500 C 1569.568 961.250, 1571.527 971.125, 1573.350 980.444 C 1575.174 989.764, 1577.109 997.536, 1577.649 997.716 C 1579.716 998.405, 1601.217 959.367, 1609.989 939 C 1611.765 934.875, 1613.798 930.150, 1614.507 928.500 C 1619 918.040, 1627.982 890.879, 1631.869 876 C 1638.774 849.570, 1643.919 814.039, 1646.948 771.852 C 1648.504 750.185, 1648.251 692.707, 1646.511 672.500 C 1643.614 638.866, 1638.588 608.097, 1633.919 595.420 C 1630.968 587.407, 1618.016 560.582, 1616.897 560.167 C 1616.404 559.983, 1616 559.252, 1616 558.541 C 1616 556.650, 1598.781 528.635, 1586.916 511.221 C 1585.312 508.867, 1584 506.549, 1584 506.070 C 1584 505.590, 1587.038 505.849, 1590.750 506.644 C 1604.613 509.613, 1615.651 512.162, 1620.500 513.513 C 1623.250 514.280, 1627.402 515.393, 1629.727 515.986 C 1633.146 516.859, 1634.418 517.870, 1636.387 521.282 C 1643.043 532.818, 1655.819 570.148, 1666.407 609 C 1669.480 620.275, 1672.656 631.750, 1673.465 634.500 C 1679.498 655.001, 1685.166 674.676, 1686.861 681 C 1687.967 685.125, 1689.992 692.325, 1691.361 697 C 1694.336 707.157, 1698.379 722.513, 1709.525 766 C 1719.475 804.815, 1732.071 864.336, 1736.614 894 C 1738.003 903.075, 1739.521 912.975, 1739.985 916 C 1752.030 994.400, 1757.390 1040.082, 1758.289 1072 L 1758.500 1079.500 1808.250 1079.759 L 1858 1080.019 1858 1074.312 C 1858 1071.174, 1857.561 1063.632, 1857.024 1057.553 C 1856.487 1051.474, 1855.124 1035.250, 1853.996 1021.500 C 1852.868 1007.750, 1851.503 992.450, 1850.962 987.500 C 1850.421 982.550, 1849.534 974.450, 1848.992 969.500 C 1848.450 964.550, 1847.308 954.875, 1846.456 948 C 1845.603 941.125, 1844.463 931.900, 1843.922 927.500 C 1843.381 923.100, 1842.550 916.800, 1842.075 913.500 C 1841.600 910.200, 1840.283 900.750, 1839.150 892.500 C 1838.016 884.250, 1836.605 875.025, 1836.014 872 C 1835.423 868.975, 1834.526 863.800, 1834.022 860.500 C 1828.917 827.089, 1815.636 762.686, 1807.110 730 C 1806.034 725.875, 1803.063 714.400, 1800.508 704.500 C 1789.700 662.627, 1778.213 625.687, 1764.124 587.500 C 1760.671 578.139, 1749.468 549.851, 1747.492 545.500 C 1741.693 532.734, 1739.628 527.989, 1738.395 524.590 L 1736.976 520.679 1762.238 521.345 C 1795.186 522.214, 1829.050 525.277, 1854 529.644 C 1858.675 530.463, 1864.975 531.524, 1868 532.002 C 1871.025 532.480, 1875.750 533.353, 1878.500 533.941 C 1881.250 534.530, 1885.807 535.426, 1888.626 535.933 C 1891.446 536.440, 1898.646 537.991, 1904.626 539.380 C 1910.607 540.768, 1916.400 542.045, 1917.500 542.216 C 1919.466 542.522, 1919.509 543.496, 1920.012 599.513 C 1920.294 630.856, 1920.632 508.788, 1920.762 328.250 L 1921 0 1851.373 0 L 1781.746 0 1782.360 4.750 C 1783.322 12.181, 1786.658 28.744, 1790.164 43.500 C 1790.687 45.700, 1791.507 49.750, 1791.986 52.500 C 1792.465 55.250, 1793.336 59.750, 1793.920 62.500 C 1797.900 81.221, 1799.299 88.045, 1799.970 92 C 1800.390 94.475, 1801.904 102.125, 1803.334 109 C 1805.599 119.885, 1809.423 138.749, 1813.065 157 C 1814.567 164.527, 1815.954 170.831, 1817.026 175 C 1818.084 179.113, 1823.473 206.110, 1825.910 219.500 C 1826.410 222.250, 1829.572 237.775, 1832.937 254 C 1836.301 270.225, 1839.474 285.750, 1839.988 288.500 C 1840.502 291.250, 1842.315 300.025, 1844.017 308 C 1845.719 315.975, 1847.501 324.750, 1847.976 327.500 C 1848.452 330.250, 1850.247 339.250, 1851.965 347.500 C 1853.684 355.750, 1855.719 365.875, 1856.487 370 C 1857.256 374.125, 1859.071 383.125, 1860.521 390 C 1861.972 396.875, 1863.567 404.750, 1864.066 407.500 C 1864.565 410.250, 1865.913 416.775, 1867.060 422 C 1868.208 427.225, 1869.519 433.525, 1869.973 436 C 1870.880 440.941, 1872.225 447.774, 1874.401 458.500 C 1875.182 462.350, 1875.488 465.851, 1875.080 466.281 C 1874.191 467.217, 1844.526 465.806, 1785 461.996 C 1775.925 461.415, 1761.525 460.496, 1753 459.955 C 1744.475 459.413, 1730.525 458.516, 1722 457.961 C 1713.475 457.406, 1699.012 456.526, 1689.859 456.006 C 1667.136 454.712, 1665.074 454.326, 1663.859 451.130 C 1663.318 449.706, 1662.566 448.307, 1662.187 448.020 C 1661.809 447.734, 1633.760 392.150, 1599.855 324.500 C 1536.484 198.055, 1475.388 76.423, 1473.025 72 C 1472.290 70.625, 1471.303 68.825, 1470.832 68 C 1470.361 67.175, 1469.140 64.700, 1468.120 62.500 C 1462.612 50.619, 1461.359 48.093, 1458.798 43.706 C 1457.259 41.069, 1456 38.502, 1456 38 C 1456 37.498, 1454.740 34.931, 1453.201 32.294 C 1451.661 29.657, 1449.774 25.925, 1449.008 24 C 1448.241 22.075, 1447.349 20.275, 1447.025 20 C 1446.702 19.725, 1444.264 15.113, 1441.608 9.750 L 1436.780 0 1167.890 0 C 1020 0, 899 0.340, 899 0.756 C 899 1.172, 906.230 8.934, 915.066 18.006 C 923.902 27.078, 936.615 40.147, 943.316 47.048 C 950.017 53.950, 968.851 73.300, 985.170 90.048 C 1001.488 106.797, 1016.473 122.187, 1018.468 124.250 C 1020.464 126.312, 1022.525 128, 1023.048 128 C 1023.572 128, 1024 128.404, 1024 128.899 C 1024 129.393, 1027.713 133.615, 1032.250 138.281 C 1036.788 142.947, 1048.078 154.660, 1057.339 164.312 C 1066.601 173.963, 1079.201 186.968, 1085.339 193.212 C 1109.583 217.875, 1138.515 248.046, 1138.832 248.997 C 1139.016 249.549, 1137.475 250, 1135.401 250 C 1121.330 250, 1103.778 254.302, 1092.079 260.619 C 1077.776 268.341, 1063.609 289.044, 1049.049 323.500 C 1048.584 324.600, 1047.521 327.075, 1046.686 329 C 1044.774 333.406, 1041.377 343.512, 1040.093 348.610 C 1039.554 350.750, 1038.646 354.300, 1038.074 356.500 C 1032.241 378.949, 1032.057 413.229, 1037.592 446 C 1040.284 461.936, 1047.994 490.028, 1052.573 500.585 C 1057.899 512.864, 1063.758 523.493, 1067.208 527.138 C 1067.919 527.889, 1070.300 530.747, 1072.500 533.489 C 1074.700 536.232, 1077.175 539.173, 1078 540.025 C 1078.825 540.877, 1082.199 544.932, 1085.498 549.037 C 1088.797 553.142, 1091.752 556.725, 1092.065 557 C 1092.378 557.275, 1094.629 560.165, 1097.067 563.421 L 1101.500 569.342 1101.853 589.671 C 1102.047 600.852, 1101.837 610, 1101.387 610 C 1099.648 610, 1072.765 594.147, 1072.167 592.768 C 1071.983 592.346, 1071.266 592, 1070.572 592 C 1069.878 592, 1066.525 590.200, 1063.121 588 C 1059.717 585.800, 1056.715 584, 1056.448 584 C 1056.182 584, 1053.001 582.200, 1049.380 580 C 1045.758 577.800, 1042.204 576, 1041.481 576 C 1040.758 576, 1040.017 575.648, 1039.833 575.217 C 1039.470 574.364, 1028.898 567.593, 1022.500 564.117 C 1020.300 562.922, 1017.150 561.080, 1015.500 560.025 C 1012.372 558.025, 1006.012 554.323, 997.500 549.547 C 994.750 548.004, 989.312 544.774, 985.416 542.371 C 981.520 539.967, 977.807 538, 977.166 538 C 976.525 538, 976 537.602, 976 537.117 C 976 536.631, 975.212 535.969, 974.250 535.646 C 973.288 535.322, 971.825 534.605, 971 534.050 C 968.711 532.512, 950.785 522, 950.451 522 C 950.205 522, 936.846 514.021, 932 510.978 C 931.175 510.461, 925.775 507.310, 920 503.977 C 914.225 500.644, 908.825 497.503, 908 496.997 C 894.976 489.007, 889.956 486, 889.643 486 C 889.435 486, 884.033 482.850, 877.640 479 C 871.247 475.150, 865.562 472, 865.008 472 C 864.454 472, 864 471.550, 864 471 C 864 470.450, 863.539 470, 862.976 470 C 862.412 470, 856.900 466.957, 850.726 463.237 C 844.552 459.518, 837.813 455.591, 835.750 454.510 C 833.688 453.429, 832 452.198, 832 451.773 C 832 451.348, 831.531 451, 830.959 451 C 830.047 451, 803.132 435.345, 800.500 433.283 C 799.950 432.852, 797.873 431.600, 795.885 430.500 C 791.156 427.884, 778.315 420.386, 774.500 418.012 C 772.850 416.986, 770.712 416.113, 769.750 416.073 C 768.788 416.033, 768 415.629, 768 415.176 C 768 414.525, 753.476 405.493, 742.791 399.500 C 741.810 398.950, 736.169 395.579, 730.254 392.009 C 724.339 388.439, 717.475 384.463, 715 383.175 C 712.525 381.886, 709.790 380.195, 708.921 379.416 C 708.053 378.637, 707.031 378, 706.650 378 C 706.269 378, 704.279 376.933, 702.229 375.630 C 700.178 374.326, 690.625 368.639, 681 362.992 C 671.375 357.345, 662.375 352.016, 661 351.150 C 659.625 350.284, 657.150 348.852, 655.500 347.968 C 649.717 344.870, 644.462 341.752, 640.200 338.889 C 637.835 337.300, 635.690 336, 635.433 336 C 635.176 336, 631.711 334.047, 627.733 331.661 C 623.755 329.274, 614.875 324.030, 608 320.007 C 601.125 315.984, 591.450 310.228, 586.500 307.215 C 577.485 301.729, 574.249 299.825, 567.250 295.893 C 565.188 294.735, 563.050 293.450, 562.500 293.037 C 561.950 292.625, 559.025 290.942, 556 289.297 C 552.975 287.652, 539.096 279.487, 525.159 271.153 C 511.221 262.819, 499.469 256, 499.044 256 C 498.618 256, 497.197 255.172, 495.885 254.160 C 494.573 253.148, 491.025 250.975, 488 249.331 C 484.975 247.687, 480.475 245.041, 478 243.451 C 475.525 241.861, 471.472 239.422, 468.992 238.030 C 457.112 231.362, 448 225.647, 448 224.865 C 448 224.389, 447.376 224, 446.614 224 C 445.029 224, 442.302 222.609, 436.270 218.724 C 433.943 217.226, 431.814 216, 431.537 216 C 431.261 216, 428.094 214.200, 424.500 212 C 420.906 209.800, 417.729 208, 417.440 208 C 417.152 208, 416.372 207.535, 415.708 206.967 C 413.439 205.026, 386.085 189, 385.041 189 C 384.469 189, 384 188.550, 384 188 C 384 187.450, 383.569 187, 383.042 187 C 382.515 187, 375.772 183.175, 368.058 178.500 C 360.343 173.825, 353.859 170, 353.648 170 C 353.437 170, 347.917 166.779, 341.382 162.843 C 334.847 158.906, 327.700 154.677, 325.500 153.445 C 323.300 152.213, 318.125 149.160, 314 146.660 C 309.875 144.161, 301.775 139.370, 296 136.015 C 290.225 132.659, 284.825 129.501, 284 128.995 C 269.783 120.290, 265.960 118, 265.639 118 C 265.428 118, 261.261 115.630, 256.378 112.734 C 251.495 109.838, 245.813 106.586, 243.750 105.507 C 241.688 104.428, 240 103.198, 240 102.773 C 240 102.348, 239.540 102, 238.978 102 C 238.416 102, 233.354 99.271, 227.728 95.935 C 222.103 92.599, 216.825 89.481, 216 89.005 C 194.878 76.826, 176.550 65.833, 176 65.014 C 175.725 64.605, 174.596 63.988, 173.491 63.644 C 172.386 63.300, 169.084 61.439, 166.154 59.509 C 163.223 57.579, 160.190 56, 159.413 56 C 158.636 56, 157.999 55.663, 157.999 55.250 C 157.998 54.837, 154.960 52.925, 151.249 51 C 147.537 49.075, 144.275 47.260, 144 46.967 C 142.725 45.609, 133.196 40, 132.162 40 C 131.523 40, 131 39.605, 131 39.121 C 131 38.638, 129.537 37.648, 127.750 36.921 C 125.963 36.194, 122.475 34.204, 120 32.499 C 117.525 30.793, 113.475 28.268, 111 26.887 C 108.525 25.506, 105.600 23.871, 104.500 23.254 C 103.400 22.637, 97.897 19.402, 92.272 16.066 C 86.646 12.730, 81.739 10, 81.366 10 C 80.994 10, 79.296 8.940, 77.594 7.644 C 75.892 6.348, 73.547 4.987, 72.382 4.618 C 71.217 4.250, 69.460 3.060, 68.477 1.974 C 66.766 0.084, 65.276 -0, 33.345 -0 L 0 0 0 328.303 M 0.494 329 C 0.494 509.675, 0.609 583.587, 0.750 493.250 C 0.891 402.912, 0.891 255.087, 0.750 164.750 C 0.609 74.412, 0.494 148.325, 0.494 329 M 1367.500 131.606 C 1358.060 132.574, 1326.031 138.768, 1310.979 142.535 C 1278.462 150.675, 1246.516 164.050, 1239.574 172.430 C 1237.720 174.669, 1234.755 178.075, 1232.984 180 C 1229.385 183.913, 1213.471 203.263, 1210.733 207.054 C 1209.762 208.399, 1206.667 212.650, 1203.856 216.500 C 1195.108 228.481, 1184.572 244.970, 1177.204 258.214 C 1169.546 271.978, 1162 287.520, 1162 289.530 C 1162 290.219, 1163.912 291.548, 1166.250 292.483 C 1187.246 300.879, 1193.176 307.131, 1200.115 328.187 C 1204.330 340.979, 1205.733 348.606, 1207.079 366.046 C 1209.496 397.352, 1206.513 428.409, 1198.247 458 C 1185.702 502.913, 1176.700 516.201, 1150.357 528.695 C 1147.136 530.222, 1144.304 531.600, 1144.064 531.755 C 1143.063 532.405, 1144.222 542.023, 1146.142 549 C 1147.278 553.125, 1150.450 562.125, 1153.192 569 C 1159.554 584.949, 1161.665 594.729, 1163.023 614.550 C 1164.083 630.023, 1163.523 644.005, 1160.364 681 C 1160.012 685.125, 1159.972 688.275, 1160.275 688 C 1160.578 687.725, 1162.255 685.700, 1164.001 683.500 C 1185.227 656.753, 1206.093 646.797, 1231.918 651.096 C 1246.482 653.520, 1269.195 663.015, 1284.209 672.957 C 1295.262 680.275, 1311.295 695.209, 1319.997 706.292 C 1324.120 711.543, 1327.658 715.675, 1327.859 715.474 C 1328.060 715.273, 1326.327 710.022, 1324.008 703.804 C 1318.838 689.945, 1310.651 674.301, 1301.278 660.372 C 1296.139 652.735, 1289.655 643.504, 1289.075 643 C 1288.759 642.725, 1285.244 638.175, 1281.265 632.890 C 1267.548 614.670, 1263.449 602.618, 1260.044 570.500 C 1256.816 540.050, 1254.765 528.743, 1250.470 517.730 C 1247.280 509.547, 1248.674 499.143, 1255.074 483.379 C 1256.193 480.623, 1256.071 479.687, 1254.035 475.379 C 1245.689 457.727, 1242.023 440.920, 1241.299 417 C 1240.851 402.188, 1241.088 397.639, 1242.841 387.385 C 1247.290 361.354, 1256.920 339.681, 1272.577 320.459 C 1275.022 317.457, 1276.756 315, 1276.430 315 C 1276.104 315, 1272.162 317.666, 1267.669 320.924 C 1257.877 328.026, 1249.758 332.248, 1246.723 331.816 C 1241.772 331.112, 1243.635 318.706, 1250.976 303.500 C 1256.204 292.671, 1262.182 284.581, 1277.582 267.497 C 1293.761 249.549, 1295.952 246.902, 1302.072 237.905 C 1306.806 230.946, 1312 221.315, 1312 219.495 C 1312 215.276, 1330.558 193.928, 1343.282 183.509 C 1347.978 179.664, 1351.613 176.182, 1351.359 175.772 C 1350.332 174.110, 1339.771 172.026, 1327.632 171.090 C 1320.555 170.544, 1314.530 169.864, 1314.244 169.577 C 1313.957 169.290, 1315.023 168.540, 1316.611 167.910 C 1323.895 165.020, 1337.587 162.476, 1353.500 161.055 C 1375.718 159.070, 1390.119 157.094, 1400.250 154.640 C 1405.612 153.341, 1410 152.580, 1410 152.950 C 1410 154.282, 1406.007 157.868, 1402.043 160.096 C 1399.820 161.346, 1398.001 162.623, 1398.001 162.934 C 1398.002 163.245, 1403.965 166.568, 1411.251 170.317 C 1439.693 184.953, 1459.912 202.734, 1476.598 227.786 C 1499.812 262.640, 1512.626 299.923, 1521.509 358.458 C 1522.924 367.785, 1524.289 375.622, 1524.541 375.874 C 1526.281 377.615, 1524.209 335.608, 1521.507 314.358 C 1517.083 279.577, 1513.915 265.421, 1506.385 246.791 C 1489.877 205.949, 1463.297 168.335, 1435.015 145.795 C 1430.882 142.501, 1426.580 139.033, 1425.457 138.089 C 1420.187 133.662, 1411.175 132.006, 1390 131.574 C 1379.825 131.366, 1369.700 131.380, 1367.500 131.606 M 1126 291.601 C 1103.995 297.481, 1086.344 329.142, 1079.548 374.926 C 1077.560 388.314, 1077.502 425.438, 1079.446 439.500 C 1084.886 478.851, 1101.742 512.102, 1120.913 521.299 C 1127.077 524.256, 1139.523 524.386, 1146.032 521.561 C 1156.683 516.938, 1164.643 507.784, 1173.694 489.749 C 1184.612 467.994, 1190 440.607, 1190 406.860 C 1190 378.440, 1187.064 359.326, 1179.480 338.374 C 1176.504 330.155, 1169.100 314.488, 1166.778 311.500 C 1157.015 298.933, 1151.866 294.657, 1143.321 292.017 C 1135.709 289.666, 1133.445 289.612, 1126 291.601 M 1330.919 292.065 C 1301.268 296.427, 1272.847 321.356, 1257.803 356.198 C 1242.459 391.732, 1242.768 436.823, 1258.587 470.839 C 1260.464 474.876, 1262 478.387, 1262 478.642 C 1262 478.896, 1264.558 483.019, 1267.684 487.802 C 1273.707 497.018, 1286.152 510.566, 1294.488 516.981 C 1315.607 533.234, 1347.662 538.501, 1372.500 529.799 C 1405.682 518.174, 1433.062 483.743, 1441.523 443 C 1443.975 431.194, 1445.080 412.232, 1444.048 399.671 C 1441.092 363.674, 1427.614 335.915, 1401.598 312.241 C 1383.311 295.599, 1357.322 288.181, 1330.919 292.065 M 1127.332 311.901 C 1124.244 312.693, 1117.012 316.676, 1114 319.242 C 1107.754 324.563, 1097.855 343.457, 1093.622 358.133 C 1088.915 374.457, 1087.666 384.837, 1087.743 407 C 1087.838 434.316, 1090.845 451.812, 1098.619 470.282 C 1102.217 478.832, 1110.244 491.049, 1115.364 495.768 C 1125.873 505.455, 1144.436 505.349, 1153.371 495.551 C 1165.481 482.271, 1173.381 464.513, 1178.084 440 C 1179.900 430.533, 1180.297 424.877, 1180.331 408 C 1180.354 396.363, 1179.833 384.041, 1179.126 379.500 C 1176.411 362.069, 1168.699 339.026, 1162.900 331.020 C 1161.305 328.819, 1160 326.625, 1160 326.146 C 1160 324.604, 1150.419 316.254, 1146.154 314.079 C 1141.563 311.736, 1132.196 310.653, 1127.332 311.901 M 1130.465 316.858 C 1122.122 321.946, 1111.009 340.837, 1106.411 357.750 C 1101.247 376.746, 1099.563 392.092, 1100.272 413.701 C 1101.067 437.938, 1104.701 455.616, 1112.291 472.162 C 1117.941 484.479, 1127.350 497.024, 1132.058 498.518 C 1135.349 499.563, 1135.131 498.810, 1130.753 493.996 C 1116.912 478.778, 1108.496 455.946, 1105.323 425 C 1103.048 402.815, 1104.993 378.809, 1110.670 359 C 1114.992 343.922, 1123.573 327.631, 1131.298 319.839 C 1136.217 314.877, 1135.853 313.573, 1130.465 316.858 M 1330.284 315.989 C 1323.488 317.432, 1310.151 323.641, 1304.527 327.979 C 1288.608 340.260, 1275.873 358.987, 1270.169 378.500 C 1266.482 391.114, 1265.584 398.179, 1265.655 414 C 1265.718 427.938, 1266.030 430.659, 1268.759 441 C 1274.274 461.904, 1283.093 477.191, 1297.508 490.836 C 1311.739 504.306, 1325.928 510.053, 1345.069 510.096 C 1360.407 510.131, 1372.524 506.510, 1384.500 498.311 C 1392.238 493.014, 1408 476.370, 1408 473.497 C 1408 473.147, 1409.263 470.979, 1410.807 468.680 C 1417.428 458.822, 1423.040 440.843, 1424.979 423.280 C 1426.583 408.747, 1424.639 390.950, 1419.887 376.670 C 1410.380 348.097, 1391.285 326.719, 1368.079 318.667 C 1360.660 316.093, 1357.810 315.650, 1347 315.392 C 1340.125 315.228, 1332.603 315.497, 1330.284 315.989 M 1315.906 325.250 C 1295.840 338.562, 1281.146 363.073, 1275.892 392 C 1274.330 400.600, 1274.307 423.838, 1275.851 432 C 1279.339 450.430, 1287.077 468.439, 1296.904 481 C 1303.936 489.988, 1320.046 503.288, 1321.789 501.544 C 1322.148 501.185, 1321.978 500.578, 1321.411 500.196 C 1303.979 488.435, 1290.181 468.497, 1283.569 445.515 C 1276.896 422.325, 1277.641 394.498, 1285.557 371.181 C 1291.212 354.523, 1305.619 335.139, 1319.250 325.846 C 1322.412 323.690, 1325 321.717, 1325 321.463 C 1325 320.062, 1321.579 321.487, 1315.906 325.250 M 1427 522.941 C 1418.254 524.719, 1404.549 534.155, 1394.563 545.275 C 1370.539 572.026, 1353.901 609.698, 1345.883 655.500 C 1342.871 672.699, 1342.636 703.610, 1345.411 717.480 C 1349.509 737.965, 1354.684 749.684, 1363.523 758.496 C 1367.754 762.714, 1371.026 765, 1374.523 766.182 C 1377.260 767.108, 1389.400 771.324, 1401.500 775.553 C 1413.600 779.781, 1424.959 783.588, 1426.743 784.013 C 1430.435 784.893, 1430.469 785.009, 1424.785 777.252 C 1417.242 766.957, 1412.328 754.977, 1408.889 738.500 C 1407.246 730.632, 1407.229 696.375, 1408.861 684 C 1415.716 632.035, 1439.218 582.227, 1469.024 556.500 C 1476.521 550.029, 1486.847 544.926, 1495.278 543.526 C 1497.356 543.181, 1498.813 542.507, 1498.518 542.028 C 1498.222 541.550, 1484.811 536.847, 1468.715 531.579 C 1439.104 521.886, 1435.679 521.177, 1427 522.941 M 1507 549.936 C 1498.178 551.715, 1485.155 559.908, 1476.377 569.202 C 1451.755 595.271, 1433.861 635.540, 1425.364 684 C 1422.948 697.778, 1422.923 733.510, 1425.322 744.500 C 1427.572 754.808, 1431.348 766.568, 1434.643 773.527 C 1439.376 783.523, 1454.112 796, 1461.185 796 C 1463.242 796, 1463.143 795.723, 1459.846 792.250 C 1448.080 779.856, 1441.718 762.542, 1438.893 735.228 C 1437.869 725.334, 1437.867 720.100, 1438.882 708.228 C 1440.221 692.569, 1443.018 674.678, 1445.603 665.238 C 1446.466 662.082, 1447.528 658.150, 1447.961 656.500 C 1448.926 652.824, 1454.029 638.362, 1456.849 631.308 C 1460.809 621.405, 1470.285 603.452, 1476.541 594 C 1484.401 582.125, 1491.384 574.309, 1500.858 566.780 C 1507.398 561.582, 1521.033 554, 1523.839 554 C 1524.406 554, 1526.137 553.484, 1527.685 552.854 L 1530.500 551.707 1526.500 550.431 C 1522.168 549.048, 1512.607 548.805, 1507 549.936 M 1520 580.295 C 1503.455 584.965, 1485.182 604.588, 1472.554 631.247 C 1464.788 647.642, 1459.486 664.413, 1455.403 685.500 C 1453.222 696.764, 1452.914 723.216, 1454.839 734 C 1456.443 742.989, 1460.406 755.134, 1463.358 760.108 C 1474.481 778.847, 1492.478 782.205, 1510.291 768.865 C 1527.368 756.076, 1542.083 733.978, 1551.820 706.500 C 1565.619 667.556, 1567.079 628.312, 1555.745 601.025 C 1552.290 592.707, 1546.077 585.610, 1539.161 582.082 C 1534.002 579.450, 1525.727 578.679, 1520 580.295 M 1518.897 591.877 C 1502.069 595.429, 1480.236 622.995, 1469.694 654 C 1457.334 690.352, 1456.691 725.558, 1467.954 749.236 C 1473.086 760.025, 1484.269 766.778, 1495 765.570 C 1502.778 764.695, 1509.758 760.820, 1517.393 753.138 C 1524.479 746.009, 1524.792 745.636, 1531.434 736.387 C 1547.250 714.363, 1559.055 672.635, 1557.712 643.500 C 1556.022 606.829, 1541.234 587.162, 1518.897 591.877 M 1151.951 619.181 C 1144.737 628.308, 1143.585 631.376, 1143.540 641.595 C 1143.495 651.908, 1143.753 652.430, 1151.478 657.642 L 1156.500 661.031 1157.176 656.765 C 1158.262 649.913, 1158.133 614, 1157.023 614 C 1156.486 614, 1154.204 616.331, 1151.951 619.181 M 1127.361 657.853 C 1125.195 659.423, 1122.602 661.959, 1121.599 663.490 L 1119.775 666.273 1123.128 668.887 C 1129.541 673.884, 1143.564 688.536, 1147.519 694.371 L 1151.499 700.241 1152.662 691.871 C 1154.178 680.959, 1154.272 672.377, 1152.904 669.820 C 1151.244 666.719, 1143.957 659.648, 1139.882 657.186 C 1135.059 654.272, 1132.086 654.430, 1127.361 657.853 M 1078.708 663.586 C 1071.771 669.079, 1062.142 678.557, 1058.477 683.500 C 1056.846 685.700, 1055.254 687.725, 1054.940 688 C 1053.657 689.122, 1048.251 697.749, 1046.632 701.259 C 1045.344 704.050, 1044.945 707.268, 1045.082 713.759 C 1045.345 726.179, 1045.919 727.236, 1049.474 721.842 C 1057.902 709.051, 1079.406 685.497, 1096.250 670.606 C 1103.929 663.817, 1105.629 661.074, 1102.250 660.920 C 1101.287 660.877, 1096.768 660.531, 1092.208 660.152 L 1083.915 659.462 1078.708 663.586 M 1201.856 663.245 C 1193.384 666.224, 1188.239 669.726, 1179.439 678.507 C 1172.508 685.423, 1167.229 692.441, 1160.924 703.124 C 1155.777 711.842, 1147.869 734, 1149.903 734 C 1150.283 734, 1152.373 732.156, 1154.547 729.903 C 1159.650 724.613, 1167.819 719.136, 1176 715.518 C 1184.579 711.725, 1199.380 710.198, 1212.958 711.706 C 1249.246 715.738, 1285.144 742.178, 1301.607 777 C 1305.654 785.561, 1305.865 786.097, 1307.904 793 C 1312.179 807.473, 1313.270 822.760, 1310.931 835.414 C 1310.343 838.594, 1310.141 841.474, 1310.481 841.815 C 1310.822 842.155, 1317.955 835.473, 1326.334 826.967 C 1341.399 811.671, 1341.581 811.433, 1342.784 805.440 C 1346.356 787.641, 1342.211 763.705, 1331.952 742.881 C 1323.112 724.937, 1306.618 705.268, 1287.500 689.872 C 1275.034 679.833, 1265.634 674.429, 1249.271 667.891 C 1236.136 662.644, 1232.913 661.917, 1220.500 661.405 C 1209.733 660.961, 1207.817 661.150, 1201.856 663.245 M 1183.500 723.113 C 1161.117 728.215, 1143.619 745.600, 1138.626 767.697 C 1131.881 797.552, 1144.263 831.906, 1171.369 858.542 C 1176.552 863.634, 1177.297 864.214, 1186.735 870.480 C 1203.633 881.700, 1223.422 888, 1241.766 888 C 1269.163 888, 1291.754 871.875, 1300.608 846 C 1303.261 838.246, 1303.271 814.543, 1300.626 804.502 C 1290.184 764.866, 1257.008 732.275, 1218.767 724.085 C 1208.391 721.862, 1191.079 721.385, 1183.500 723.113 M 1191 733.587 C 1170.148 737.303, 1152.546 751.434, 1145.640 770 C 1137.419 792.101, 1145.750 826.962, 1164.500 848.926 C 1174.686 860.858, 1184.753 868.846, 1198 875.508 C 1210.291 881.690, 1218.755 883.838, 1234 884.648 C 1251.832 885.594, 1262.904 881.960, 1274.991 871.193 C 1289.792 858.008, 1295.934 840.118, 1293.063 818.547 C 1287.755 778.661, 1256.554 744.882, 1216.342 735.488 C 1209.292 733.841, 1195.415 732.800, 1191 733.587 M 1195 757.649 C 1180.597 759.818, 1169.235 767.460, 1162.977 779.187 C 1159.692 785.342, 1159.608 785.800, 1159.598 797.500 C 1159.586 810.542, 1160.483 814.909, 1165.243 825 C 1171.742 838.777, 1184.027 851.336, 1197.322 857.795 C 1208.306 863.131, 1210.156 863.731, 1219.794 865.081 C 1233.517 867.003, 1245.043 863.610, 1254.546 854.851 C 1273.175 837.679, 1270.348 804.215, 1248.261 780.454 C 1244.396 776.296, 1234.667 768, 1233.655 768 C 1233.343 768, 1230.931 766.738, 1228.294 765.197 C 1223.057 762.134, 1215.497 759.567, 1207.114 758.004 C 1201.730 757.001, 1199.700 756.941, 1195 757.649 M 1193.600 768.838 C 1192.921 769.937, 1194.526 789.489, 1197.031 810.630 C 1198.130 819.908, 1199.477 831.775, 1200.024 837 C 1200.571 842.225, 1201.235 847.462, 1201.500 848.638 C 1202.001 850.860, 1208.208 854, 1212.100 854 C 1213.810 854, 1214.068 853.534, 1213.622 851.250 C 1213.326 849.737, 1212.817 845.350, 1212.491 841.500 C 1211.825 833.654, 1210.373 819.520, 1208.996 807.500 C 1208.492 803.100, 1207.298 792.413, 1206.342 783.750 L 1204.605 768 1199.361 768 C 1196.478 768, 1193.885 768.377, 1193.600 768.838 M 1210 770.250 C 1210.001 771.308, 1212.177 791.760, 1215.985 826.500 C 1218.112 845.904, 1219.263 853.584, 1220.219 854.750 C 1221.400 856.189, 1227.818 856.401, 1229.919 855.071 C 1231.132 854.303, 1230.946 850.506, 1228.629 828.837 C 1227.138 814.901, 1225.509 800.575, 1225.008 797 C 1224.507 793.425, 1223.816 787.482, 1223.473 783.793 C 1222.507 773.396, 1221.852 771.808, 1217.947 770.398 C 1213.412 768.759, 1210 768.696, 1210 770.250 M 1183.500 772.728 C 1178.617 775.297, 1176.962 777.818, 1177.485 781.891 C 1177.984 785.775, 1180.166 804.841, 1182.418 825 L 1183.814 837.500 1189.157 842.315 C 1194.165 846.828, 1194.522 846.987, 1194.848 844.850 C 1195.221 842.401, 1194.445 833.992, 1190.383 796.500 C 1188.953 783.300, 1187.494 772.196, 1187.142 771.825 C 1186.789 771.454, 1185.150 771.860, 1183.500 772.728 M 1228.002 777.250 C 1228.003 777.938, 1228.684 784.800, 1229.516 792.500 C 1230.347 800.200, 1231.502 811, 1232.082 816.500 C 1234.347 837.989, 1236.545 852.361, 1237.620 852.713 C 1238.236 852.915, 1240.711 851.561, 1243.120 849.704 C 1247.220 846.544, 1247.486 846.046, 1247.285 841.914 C 1246.967 835.385, 1245.259 817.451, 1243.388 801 L 1241.740 786.500 1236.279 781.250 C 1230.965 776.141, 1227.998 774.707, 1228.002 777.250 M 1169.424 792.250 C 1168.221 799.055, 1168.908 808.491, 1171.131 815.689 C 1172.994 821.720, 1175.825 827.508, 1176.555 826.778 C 1176.711 826.622, 1176.432 819.995, 1175.935 812.051 C 1175.087 798.513, 1172.934 788, 1171.008 788 C 1170.550 788, 1169.838 789.913, 1169.424 792.250 M 1248.431 800.250 C 1248.718 802.038, 1249.203 807.550, 1249.509 812.500 C 1250.098 822.031, 1251.755 832.503, 1253.070 835 C 1254.524 837.763, 1256.193 830.964, 1256.261 821.998 C 1256.304 816.376, 1255.718 811.633, 1254.532 807.998 C 1251.398 798.390, 1247.296 793.181, 1248.431 800.250" stroke="none" fill="#646261" fill-rule="evenodd"/></svg>